<svg id="Слой_1" data-name="Слой 1" xmlns="http://www.w3.org/2000/svg" viewBox="0 0 159.41 64.01"><title>listiq</title><path d="M12.24,51.12l-2.34.4a19.53,19.53,0,0,1-3.13.25,16.92,16.92,0,0,1-2.84-.22,4.84,4.84,0,0,1-2.12-.86A4.15,4.15,0,0,1,.47,48.92,7.62,7.62,0,0,1,0,46V4.25l2.34-.4A19.46,19.46,0,0,1,5.47,3.6a16.94,16.94,0,0,1,2.84.22,4.85,4.85,0,0,1,2.12.86,4.16,4.16,0,0,1,1.33,1.76,7.65,7.65,0,0,1,.47,2.92Z"/><path d="M19.66,6.48a6.33,6.33,0,0,1,1.84-4.61A6.5,6.5,0,0,1,26.35,0a6.5,6.5,0,0,1,4.86,1.87A6.33,6.33,0,0,1,33,6.48a6.33,6.33,0,0,1-1.84,4.61A6.5,6.5,0,0,1,26.35,13a6.5,6.5,0,0,1-4.86-1.87A6.32,6.32,0,0,1,19.66,6.48ZM32.47,51.12l-2.34.4a19.53,19.53,0,0,1-3.13.25,16.92,16.92,0,0,1-2.84-.22A4.84,4.84,0,0,1,22,50.69a4.15,4.15,0,0,1-1.33-1.76A7.62,7.62,0,0,1,20.23,46V16.7l2.34-.4a19.46,19.46,0,0,1,3.13-.25,16.94,16.94,0,0,1,2.84.22,4.86,4.86,0,0,1,2.12.86A4.17,4.17,0,0,1,32,18.9a7.65,7.65,0,0,1,.47,2.92Z"/><path d="M69.77,40.75a10.13,10.13,0,0,1-4.1,8.57q-4.1,3.1-12.1,3.1A34.19,34.19,0,0,1,48,52a16.09,16.09,0,0,1-4.43-1.33,7.91,7.91,0,0,1-2.88-2.27,5.18,5.18,0,0,1-1-3.24,5.53,5.53,0,0,1,.72-2.92,7.28,7.28,0,0,1,1.73-2,28.66,28.66,0,0,0,4.79,2.05,19.65,19.65,0,0,0,6.23.9,7.27,7.27,0,0,0,3.42-.65,1.94,1.94,0,0,0,1.19-1.73,1.81,1.81,0,0,0-.86-1.58,8,8,0,0,0-2.88-.94l-2.16-.43Q45.5,36.65,42.44,34T39.38,26.5a9.94,9.94,0,0,1,4.39-8.42,16.27,16.27,0,0,1,5-2.23A24.59,24.59,0,0,1,55.22,15a30.1,30.1,0,0,1,5,.4,16.36,16.36,0,0,1,4.07,1.19A7.36,7.36,0,0,1,67,18.68a4.64,4.64,0,0,1,1,3,6.15,6.15,0,0,1-.61,2.84,6.4,6.4,0,0,1-1.55,2,8.93,8.93,0,0,0-1.73-.76Q63,25.34,61.63,25t-2.77-.54a16.94,16.94,0,0,0-2.56-.22,9.88,9.88,0,0,0-3.67.54,1.79,1.79,0,0,0-1.3,1.69,1.52,1.52,0,0,0,.72,1.3,8.26,8.26,0,0,0,2.74.94l2.23.5q6.91,1.58,9.83,4.36A9.44,9.44,0,0,1,69.77,40.75Z"/><path d="M87.91,39.17a3,3,0,0,0,1.19,2.66,6,6,0,0,0,3.35.79,14.38,14.38,0,0,0,2.23-.18,12.45,12.45,0,0,0,2-.47,8.84,8.84,0,0,1,1.12,1.76,5.36,5.36,0,0,1,.47,2.34,5.56,5.56,0,0,1-2.05,4.46Q94.18,52.27,89,52.27q-6.34,0-9.76-2.88T75.81,40V9.22q.79-.22,2.27-.47a18.6,18.6,0,0,1,3.13-.25,9.22,9.22,0,0,1,4.93,1.12q1.76,1.12,1.76,4.72v4.61h9.43a12.41,12.41,0,0,1,.83,2,8.3,8.3,0,0,1,.4,2.63,5,5,0,0,1-1.12,3.64,4,4,0,0,1-3,1.12H87.91Z"/><path d="M104.18,6.48A6.33,6.33,0,0,1,106,1.87a7.24,7.24,0,0,1,9.72,0,6.33,6.33,0,0,1,1.84,4.61,6.33,6.33,0,0,1-1.84,4.61,7.24,7.24,0,0,1-9.72,0A6.32,6.32,0,0,1,104.18,6.48ZM117,51.12l-2.34.4a19.53,19.53,0,0,1-3.13.25,16.92,16.92,0,0,1-2.84-.22,4.84,4.84,0,0,1-2.12-.86,4.15,4.15,0,0,1-1.33-1.76,7.62,7.62,0,0,1-.47-2.92V16.7l2.34-.4a19.46,19.46,0,0,1,3.13-.25,16.94,16.94,0,0,1,2.84.22,4.86,4.86,0,0,1,2.12.86,4.17,4.17,0,0,1,1.33,1.76,7.65,7.65,0,0,1,.47,2.92Z"/><path d="M141.33,52.34a22.19,22.19,0,0,1-7.13-1.12,15.5,15.5,0,0,1-5.76-3.42A15.7,15.7,0,0,1,124.63,42a22,22,0,0,1-1.37-8.14,20.91,20.91,0,0,1,1.44-8,16.35,16.35,0,0,1,4.07-5.9,17.2,17.2,0,0,1,6.34-3.64,26.21,26.21,0,0,1,8.24-1.22,25.71,25.71,0,0,1,7.56,1.08,20,20,0,0,1,5.4,2.38,8.28,8.28,0,0,1,2.27,2.3,5.91,5.91,0,0,1,.83,3.24V63.29a19.81,19.81,0,0,1-2.3.47,20.66,20.66,0,0,1-3.24.25,16.92,16.92,0,0,1-2.84-.22,4.84,4.84,0,0,1-2.12-.86,3.91,3.91,0,0,1-1.3-1.76,8.22,8.22,0,0,1-.43-2.92V51.41a11.44,11.44,0,0,1-2.74.72A21.86,21.86,0,0,1,141.33,52.34Zm5.9-26.93a9.3,9.3,0,0,0-1.51-.5,8.37,8.37,0,0,0-2-.22,7.72,7.72,0,0,0-6,2.27q-2.09,2.27-2.09,6.8,0,4.75,2,6.84a7.54,7.54,0,0,0,5.69,2.09,6.67,6.67,0,0,0,3.89-1Z"/></svg>